<svg xmlns="http://www.w3.org/2000/svg" xmlns:xlink="http://www.w3.org/1999/xlink" viewBox="0 0 563.25 616"><defs><style>.cls-1{isolation:isolate;}.cls-2{fill:#e16b07;}.cls-13,.cls-15,.cls-17,.cls-19,.cls-21,.cls-24,.cls-26,.cls-28,.cls-3,.cls-5,.cls-7,.cls-86,.cls-89,.cls-9{mix-blend-mode:multiply;}.cls-3{fill:url(#Degradado_sin_nombre_51);}.cls-4{fill:#e4630f;}.cls-5{fill:url(#Degradado_sin_nombre_51-2);}.cls-6{fill:#e2981d;}.cls-7{fill:url(#Degradado_sin_nombre_26);}.cls-8{fill:#df9f19;}.cls-9{fill:url(#Degradado_sin_nombre_28);}.cls-10{fill:#f9bf53;}.cls-11{fill:#f7c258;}.cls-12{fill:#ef810e;}.cls-13{fill:url(#Degradado_sin_nombre_36);}.cls-14{fill:#f48b16;}.cls-15{fill:url(#Degradado_sin_nombre_32);}.cls-16{fill:#eea121;}.cls-17{fill:url(#Degradado_sin_nombre_34);}.cls-18{fill:#f2a531;}.cls-19{fill:url(#Degradado_sin_nombre_51-3);}.cls-20{fill:#ea860e;}.cls-21{fill:url(#Degradado_sin_nombre_51-4);}.cls-22{fill:#ee7e10;}.cls-23{fill:#e97508;}.cls-24{fill:url(#Degradado_sin_nombre_51-5);}.cls-25{fill:#ef8a08;}.cls-26{fill:url(#Degradado_sin_nombre_48);}.cls-27{fill:#f78d17;}.cls-29{fill:url(#Degradado_sin_nombre_49);}.cls-30{fill:#da4d08;}.cls-31{fill:url(#Degradado_sin_nombre_35);}.cls-32{fill:#e9720e;}.cls-33{fill:url(#Degradado_sin_nombre_35-2);}.cls-34{fill:#dd5b07;}.cls-35{fill:url(#Degradado_sin_nombre_35-3);}.cls-36{fill:#ec8a0f;}.cls-37{fill:url(#Degradado_sin_nombre_35-4);}.cls-38{fill:#de5803;}.cls-39{fill:url(#Degradado_sin_nombre_35-5);}.cls-40{fill:#e57c07;}.cls-41{fill:url(#Degradado_sin_nombre_37);}.cls-42{fill:#de5d09;}.cls-43{fill:url(#Degradado_sin_nombre_35-6);}.cls-44{fill:#ef940f;}.cls-45{fill:url(#Degradado_sin_nombre_35-7);}.cls-46{fill:#c43709;}.cls-47{fill:#1e1d1f;}.cls-48{fill:#be300c;}.cls-49{fill:#d64703;}.cls-50{fill:url(#Degradado_sin_nombre_57);}.cls-51{fill:#d84905;}.cls-52{fill:url(#Degradado_sin_nombre_18);}.cls-53{fill:#8e261b;}.cls-54{fill:url(#Degradado_sin_nombre_43);}.cls-55{fill:#6c2425;}.cls-56{fill:url(#Degradado_sin_nombre_29);}.cls-57{fill:#782a26;}.cls-58{fill:url(#Degradado_sin_nombre_38);}.cls-59{fill:#6c2624;}.cls-60{fill:url(#Degradado_sin_nombre_42);}.cls-61{fill:#7e2a2a;}.cls-62{fill:url(#Degradado_sin_nombre_29-2);}.cls-63{fill:#6d2c28;}.cls-64{fill:url(#Degradado_sin_nombre_29-3);}.cls-65{fill:#922d1b;}.cls-66{fill:url(#Degradado_sin_nombre_56);}.cls-67{fill:#8f2d20;}.cls-68{fill:url(#Degradado_sin_nombre_29-4);}.cls-69{fill:#b7461c;}.cls-70{fill:url(#Degradado_sin_nombre_13);}.cls-71{fill:#c64605;}.cls-72{fill:url(#Degradado_sin_nombre_15);}.cls-73{fill:#e77014;}.cls-74{fill:url(#Degradado_sin_nombre_13-2);}.cls-75{fill:#b74310;}.cls-76{fill:url(#Degradado_sin_nombre_12);}.cls-77{fill:#c55211;}.cls-78{fill:url(#Degradado_sin_nombre_13-3);}.cls-79{fill:#6b3d3f;}.cls-80{fill:url(#Degradado_sin_nombre_17);}.cls-81{fill:#e97900;}.cls-82{fill:url(#Degradado_sin_nombre_13-4);}.cls-83{fill:#c45925;}.cls-84{fill:url(#Degradado_sin_nombre_7);}.cls-85{fill:#fbcc62;}.cls-86{fill:url(#Degradado_sin_nombre_22);}.cls-87{fill:url(#Degradado_sin_nombre_25);}.cls-88{fill:#bd2c0d;}.cls-89{fill:url(#Degradado_sin_nombre_60);}.cls-90{fill:#682b09;}.cls-91{fill:#7c2723;}.cls-92{fill:#2d1102;}.cls-93{fill:#4c2515;}</style><linearGradient id="Degradado_sin_nombre_51" x1="538.57" y1="159.83" x2="392.21" y2="296.12" gradientUnits="userSpaceOnUse"><stop offset="0.06" stop-color="#fff" stop-opacity="0"/><stop offset="0.14" stop-color="#fde3da" stop-opacity="0.17"/><stop offset="0.25" stop-color="#fabfaa" stop-opacity="0.39"/><stop offset="0.36" stop-color="#f7a081" stop-opacity="0.57"/><stop offset="0.47" stop-color="#f58760" stop-opacity="0.73"/><stop offset="0.58" stop-color="#f37345" stop-opacity="0.85"/><stop offset="0.69" stop-color="#f26533" stop-opacity="0.93"/><stop offset="0.8" stop-color="#f15d28" stop-opacity="0.98"/><stop offset="0.9" stop-color="#f15a24"/></linearGradient><linearGradient id="Degradado_sin_nombre_51-2" x1="441.84" y1="166.13" x2="584.63" y2="269.98" xlink:href="#Degradado_sin_nombre_51"/><linearGradient id="Degradado_sin_nombre_26" x1="516.15" y1="96.26" x2="462.21" y2="150.6" gradientUnits="userSpaceOnUse"><stop offset="0.04" stop-color="#fff" stop-opacity="0"/><stop offset="0.9" stop-color="#603813"/></linearGradient><linearGradient id="Degradado_sin_nombre_28" x1="467.29" y1="98.72" x2="506.55" y2="143.35" gradientUnits="userSpaceOnUse"><stop offset="0.04" stop-color="#fff" stop-opacity="0"/><stop offset="0.38" stop-color="#c5b6a9" stop-opacity="0.36"/><stop offset="0.9" stop-color="#603813"/></linearGradient><linearGradient id="Degradado_sin_nombre_36" x1="448.4" y1="248.55" x2="367.46" y2="387.1" gradientUnits="userSpaceOnUse"><stop offset="0.19" stop-color="#fff" stop-opacity="0"/><stop offset="0.25" stop-color="#e9e4df" stop-opacity="0.14"/><stop offset="0.44" stop-color="#ae9a87" stop-opacity="0.51"/><stop offset="0.62" stop-color="#836447" stop-opacity="0.78"/><stop offset="0.78" stop-color="#694320" stop-opacity="0.94"/><stop offset="0.9" stop-color="#603813"/></linearGradient><linearGradient id="Degradado_sin_nombre_32" x1="560.09" y1="266.94" x2="516.53" y2="485.64" gradientUnits="userSpaceOnUse"><stop offset="0.06" stop-color="#fff" stop-opacity="0"/><stop offset="0.1" stop-color="#f0ece9" stop-opacity="0.09"/><stop offset="0.24" stop-color="#bcab9c" stop-opacity="0.42"/><stop offset="0.39" stop-color="#947960" stop-opacity="0.68"/><stop offset="0.54" stop-color="#775435" stop-opacity="0.86"/><stop offset="0.71" stop-color="#663f1b" stop-opacity="0.97"/><stop offset="0.9" stop-color="#603813"/></linearGradient><linearGradient id="Degradado_sin_nombre_34" x1="385.43" y1="170.47" x2="498.72" y2="417.46" gradientUnits="userSpaceOnUse"><stop offset="0.06" stop-color="#fff" stop-opacity="0"/><stop offset="0.19" stop-color="#e1d9d2" stop-opacity="0.19"/><stop offset="0.5" stop-color="#9b826b" stop-opacity="0.63"/><stop offset="0.75" stop-color="#704c2b" stop-opacity="0.9"/><stop offset="0.9" stop-color="#603813"/></linearGradient><linearGradient id="Degradado_sin_nombre_51-3" x1="568.45" y1="168.02" x2="465.33" y2="538.98" xlink:href="#Degradado_sin_nombre_51"/><linearGradient id="Degradado_sin_nombre_51-4" x1="575.23" y1="199.76" x2="651.24" y2="220.32" xlink:href="#Degradado_sin_nombre_51"/><linearGradient id="Degradado_sin_nombre_51-5" x1="590.42" y1="202.6" x2="766.32" y2="313.17" xlink:href="#Degradado_sin_nombre_51"/><linearGradient id="Degradado_sin_nombre_48" x1="453.62" y1="19.88" x2="212.71" y2="680.1" gradientUnits="userSpaceOnUse"><stop offset="0.23" stop-color="#fff" stop-opacity="0"/><stop offset="0.25" stop-color="#fdebe5" stop-opacity="0.12"/><stop offset="0.28" stop-color="#fbcdbd" stop-opacity="0.3"/><stop offset="0.33" stop-color="#f8b298" stop-opacity="0.47"/><stop offset="0.37" stop-color="#f69a79" stop-opacity="0.61"/><stop offset="0.42" stop-color="#f5865e" stop-opacity="0.73"/><stop offset="0.47" stop-color="#f37649" stop-opacity="0.83"/><stop offset="0.53" stop-color="#f26938" stop-opacity="0.91"/><stop offset="0.6" stop-color="#f2612d" stop-opacity="0.96"/><stop offset="0.7" stop-color="#f15b26" stop-opacity="0.99"/><stop offset="0.9" stop-color="#f15a24"/></linearGradient><linearGradient id="Degradado_sin_nombre_49" x1="391.72" y1="196.32" x2="259.67" y2="282.4" gradientUnits="userSpaceOnUse"><stop offset="0.06" stop-color="#fff" stop-opacity="0"/><stop offset="0.21" stop-color="#ccbfb3" stop-opacity="0.32"/><stop offset="0.39" stop-color="#9d846d" stop-opacity="0.62"/><stop offset="0.56" stop-color="#7b5a3b" stop-opacity="0.83"/><stop offset="0.73" stop-color="#67401d" stop-opacity="0.96"/><stop offset="0.9" stop-color="#603813"/></linearGradient><linearGradient id="Degradado_sin_nombre_35" x1="635.59" y1="296.66" x2="374.22" y2="352.41" gradientUnits="userSpaceOnUse"><stop offset="0.14" stop-color="#fff" stop-opacity="0"/><stop offset="0.19" stop-color="#e7e1db" stop-opacity="0.15"/><stop offset="0.3" stop-color="#b6a493" stop-opacity="0.46"/><stop offset="0.43" stop-color="#90745a" stop-opacity="0.7"/><stop offset="0.56" stop-color="#755232" stop-opacity="0.87"/><stop offset="0.71" stop-color="#653e1a" stop-opacity="0.97"/><stop offset="0.9" stop-color="#603813"/></linearGradient><linearGradient id="Degradado_sin_nombre_35-2" x1="680.84" y1="298.22" x2="419.48" y2="318.29" xlink:href="#Degradado_sin_nombre_35"/><linearGradient id="Degradado_sin_nombre_35-3" x1="673.41" y1="314.64" x2="595.36" y2="283.86" xlink:href="#Degradado_sin_nombre_35"/><linearGradient id="Degradado_sin_nombre_35-4" x1="732.31" y1="298.27" x2="480.76" y2="379.44" xlink:href="#Degradado_sin_nombre_35"/><linearGradient id="Degradado_sin_nombre_35-5" x1="366.47" y1="285.66" x2="606.51" y2="432.69" xlink:href="#Degradado_sin_nombre_35"/><linearGradient id="Degradado_sin_nombre_37" x1="320.7" y1="318.8" x2="474.86" y2="256.54" gradientUnits="userSpaceOnUse"><stop offset="0.14" stop-color="#fff" stop-opacity="0"/><stop offset="0.22" stop-color="#e5dfd9" stop-opacity="0.16"/><stop offset="0.41" stop-color="#ab9683" stop-opacity="0.53"/><stop offset="0.6" stop-color="#826245" stop-opacity="0.79"/><stop offset="0.77" stop-color="#694320" stop-opacity="0.94"/><stop offset="0.9" stop-color="#603813"/></linearGradient><linearGradient id="Degradado_sin_nombre_35-6" x1="304.39" y1="322.69" x2="416.97" y2="267.99" xlink:href="#Degradado_sin_nombre_35"/><linearGradient id="Degradado_sin_nombre_35-7" x1="242.34" y1="298.88" x2="613.7" y2="408.31" xlink:href="#Degradado_sin_nombre_35"/><linearGradient id="Degradado_sin_nombre_57" x1="667" y1="313.03" x2="507.13" y2="521.35" gradientUnits="userSpaceOnUse"><stop offset="0.06" stop-color="#fff" stop-opacity="0"/><stop offset="0.09" stop-color="#fef5f2" stop-opacity="0.06"/><stop offset="0.17" stop-color="#fbd1c2" stop-opacity="0.28"/><stop offset="0.27" stop-color="#f8b198" stop-opacity="0.47"/><stop offset="0.36" stop-color="#f69674" stop-opacity="0.63"/><stop offset="0.46" stop-color="#f48157" stop-opacity="0.77"/><stop offset="0.56" stop-color="#f37041" stop-opacity="0.87"/><stop offset="0.66" stop-color="#f26331" stop-opacity="0.94"/><stop offset="0.77" stop-color="#f15c27" stop-opacity="0.99"/><stop offset="0.9" stop-color="#f15a24"/></linearGradient><linearGradient id="Degradado_sin_nombre_18" x1="442.65" y1="198.41" x2="449.2" y2="697.72" gradientUnits="userSpaceOnUse"><stop offset="0.17" stop-color="#fff" stop-opacity="0"/><stop offset="0.19" stop-color="#fef0f0" stop-opacity="0.07"/><stop offset="0.27" stop-color="#fabfc1" stop-opacity="0.28"/><stop offset="0.35" stop-color="#f69397" stop-opacity="0.48"/><stop offset="0.43" stop-color="#f46e73" stop-opacity="0.64"/><stop offset="0.51" stop-color="#f15057" stop-opacity="0.77"/><stop offset="0.59" stop-color="#ef3940" stop-opacity="0.87"/><stop offset="0.68" stop-color="#ee2930" stop-opacity="0.94"/><stop offset="0.78" stop-color="#ed1f27" stop-opacity="0.99"/><stop offset="0.9" stop-color="#ed1c24"/></linearGradient><linearGradient id="Degradado_sin_nombre_43" x1="484.87" y1="482.77" x2="537.12" y2="216.93" gradientUnits="userSpaceOnUse"><stop offset="0.06" stop-color="#fff" stop-opacity="0"/><stop offset="0.07" stop-color="#fdfdfd" stop-opacity="0.01"/><stop offset="0.15" stop-color="#cdc0b5" stop-opacity="0.32"/><stop offset="0.23" stop-color="#a58e7a" stop-opacity="0.57"/><stop offset="0.33" stop-color="#86684c" stop-opacity="0.76"/><stop offset="0.45" stop-color="#704c2b" stop-opacity="0.9"/><stop offset="0.6" stop-color="#643d18" stop-opacity="0.98"/><stop offset="0.9" stop-color="#603813"/></linearGradient><linearGradient id="Degradado_sin_nombre_29" x1="372.07" y1="499.53" x2="363.87" y2="315.76" xlink:href="#Degradado_sin_nombre_49"/><linearGradient id="Degradado_sin_nombre_38" x1="250.41" y1="410.67" x2="437.85" y2="597" gradientUnits="userSpaceOnUse"><stop offset="0.06" stop-color="#fff" stop-opacity="0"/><stop offset="0.24" stop-color="#cdc1b5" stop-opacity="0.31"/><stop offset="0.56" stop-color="#7f5e40" stop-opacity="0.81"/><stop offset="0.71" stop-color="#603813"/></linearGradient><linearGradient id="Degradado_sin_nombre_42" x1="251.86" y1="507.38" x2="326.73" y2="284.02" gradientUnits="userSpaceOnUse"><stop offset="0.06" stop-color="#fff" stop-opacity="0"/><stop offset="0.07" stop-color="#f9f8f7" stop-opacity="0.04"/><stop offset="0.16" stop-color="#cabdb0" stop-opacity="0.33"/><stop offset="0.25" stop-color="#a38c77" stop-opacity="0.58"/><stop offset="0.35" stop-color="#85664a" stop-opacity="0.77"/><stop offset="0.48" stop-color="#704c2b" stop-opacity="0.9"/><stop offset="0.64" stop-color="#643c18" stop-opacity="0.98"/><stop offset="1" stop-color="#603813"/></linearGradient><linearGradient id="Degradado_sin_nombre_29-2" x1="667.1" y1="408.84" x2="542.71" y2="536.16" xlink:href="#Degradado_sin_nombre_49"/><linearGradient id="Degradado_sin_nombre_29-3" x1="664.46" y1="492.91" x2="838.61" y2="413.88" xlink:href="#Degradado_sin_nombre_49"/><linearGradient id="Degradado_sin_nombre_56" x1="330.31" y1="572.66" x2="426.53" y2="417.11" gradientUnits="userSpaceOnUse"><stop offset="0.16" stop-color="#fff" stop-opacity="0"/><stop offset="0.17" stop-color="#fdfcfc" stop-opacity="0.01"/><stop offset="0.31" stop-color="#c4b6a8" stop-opacity="0.37"/><stop offset="0.45" stop-color="#987f67" stop-opacity="0.65"/><stop offset="0.59" stop-color="#795738" stop-opacity="0.84"/><stop offset="0.74" stop-color="#66401c" stop-opacity="0.96"/><stop offset="0.9" stop-color="#603813"/></linearGradient><linearGradient id="Degradado_sin_nombre_29-4" x1="642.12" y1="488.71" x2="555.52" y2="546.44" xlink:href="#Degradado_sin_nombre_49"/><linearGradient id="Degradado_sin_nombre_13" x1="481.34" y1="447.1" x2="492.33" y2="699.77" gradientUnits="userSpaceOnUse"><stop offset="0" stop-color="#fff" stop-opacity="0"/><stop offset="0.08" stop-color="#e1e1e1" stop-opacity="0.15"/><stop offset="0.38" stop-color="#818181" stop-opacity="0.62"/><stop offset="0.67" stop-color="#474747" stop-opacity="0.9"/><stop offset="0.9" stop-color="#333"/></linearGradient><linearGradient id="Degradado_sin_nombre_15" x1="650.85" y1="241.46" x2="654.39" y2="284.54" gradientUnits="userSpaceOnUse"><stop offset="0" stop-color="#fff" stop-opacity="0"/><stop offset="0.09" stop-color="#dbdbdb" stop-opacity="0.18"/><stop offset="0.39" stop-color="#7e7e7e" stop-opacity="0.63"/><stop offset="0.66" stop-color="#464646" stop-opacity="0.91"/><stop offset="0.9" stop-color="#333"/></linearGradient><linearGradient id="Degradado_sin_nombre_13-2" x1="682.53" y1="183.59" x2="694.56" y2="248.26" xlink:href="#Degradado_sin_nombre_13"/><linearGradient id="Degradado_sin_nombre_12" x1="680.9" y1="125.41" x2="667.37" y2="176.06" gradientUnits="userSpaceOnUse"><stop offset="0" stop-color="#fff" stop-opacity="0"/><stop offset="0.17" stop-color="#cabdb0" stop-opacity="0.33"/><stop offset="0.35" stop-color="#9c836c" stop-opacity="0.62"/><stop offset="0.53" stop-color="#7b593a" stop-opacity="0.83"/><stop offset="0.72" stop-color="#67401d" stop-opacity="0.96"/><stop offset="0.9" stop-color="#603813"/></linearGradient><linearGradient id="Degradado_sin_nombre_13-3" x1="309.82" y1="250.94" x2="360.51" y2="227.34" xlink:href="#Degradado_sin_nombre_13"/><linearGradient id="Degradado_sin_nombre_17" x1="282.49" y1="235.64" x2="297.57" y2="225.63" gradientUnits="userSpaceOnUse"><stop offset="0" stop-color="#fff" stop-opacity="0"/><stop offset="0.11" stop-color="#dfd7d0" stop-opacity="0.2"/><stop offset="0.33" stop-color="#a8927e" stop-opacity="0.55"/><stop offset="0.54" stop-color="#806043" stop-opacity="0.8"/><stop offset="0.74" stop-color="#68421f" stop-opacity="0.95"/><stop offset="0.9" stop-color="#603813"/></linearGradient><linearGradient id="Degradado_sin_nombre_13-4" x1="276.66" y1="173.94" x2="334.14" y2="219.36" xlink:href="#Degradado_sin_nombre_13"/><linearGradient id="Degradado_sin_nombre_7" x1="304.3" y1="127.87" x2="339.98" y2="157.2" xlink:href="#Degradado_sin_nombre_17"/><linearGradient id="Degradado_sin_nombre_22" x1="486.89" y1="57.28" x2="499.93" y2="267.76" gradientUnits="userSpaceOnUse"><stop offset="0.17" stop-color="#fff" stop-opacity="0"/><stop offset="0.6" stop-color="#9e856f" stop-opacity="0.61"/><stop offset="0.9" stop-color="#603813"/></linearGradient><linearGradient id="Degradado_sin_nombre_25" x1="490.13" y1="101.02" x2="481.7" y2="-83.15" gradientUnits="userSpaceOnUse"><stop offset="0" stop-color="#fff" stop-opacity="0"/><stop offset="0" stop-color="#fff" stop-opacity="0.01"/><stop offset="0.26" stop-color="#f6f6f6" stop-opacity="0.35"/><stop offset="0.48" stop-color="#efefef" stop-opacity="0.63"/><stop offset="0.67" stop-color="#eaeaea" stop-opacity="0.83"/><stop offset="0.82" stop-color="#e7e7e7" stop-opacity="0.95"/><stop offset="0.9" stop-color="#e6e6e6"/></linearGradient><radialGradient id="Degradado_sin_nombre_60" cx="273.86" cy="150.65" r="144.1" gradientUnits="userSpaceOnUse"><stop offset="0" stop-color="#ff931e"/><stop offset="0.13" stop-color="#ffa645"/><stop offset="0.36" stop-color="#ffc586"/><stop offset="0.58" stop-color="#ffdeba"/><stop offset="0.76" stop-color="#fff0e0"/><stop offset="0.91" stop-color="#fffbf7"/><stop offset="1" stop-color="#fff"/></radialGradient></defs><g class="cls-1"><g id="Capa_7" data-name="Capa 7"><path class="cls-2" d="M489.59,223.27s22.27-22.4,49.48-37.75l-8.56-36-41.05,29.87Z" transform="translate(-214.93 -48)"/><path class="cls-3" d="M489.59,223.27s22.27-22.4,49.48-37.75l-8.56-36-41.05,29.87Z" transform="translate(-214.93 -48)"/><path class="cls-4" d="M449.81,149.52l39.65,29.87.13,43.88s-28-25.73-49-37.75Z" transform="translate(-214.93 -48)"/><path class="cls-5" d="M449.81,149.52l39.65,29.87.13,43.88s-28-25.73-49-37.75Z" transform="translate(-214.93 -48)"/><path class="cls-6" d="M519.36,95.78S500,114.1,489.8,127.13l-.21-7s9.84-12.29,28.33-29.65Z" transform="translate(-214.93 -48)"/><path class="cls-7" d="M519.36,95.78S500,114.1,489.8,127.13l-.21-7s9.84-12.29,28.33-29.65Z" transform="translate(-214.93 -48)"/><path class="cls-8" d="M460.29,95.78S490,124.11,489.8,127.13l-.21-7.61S473.24,98.54,461.4,91Z" transform="translate(-214.93 -48)"/><path class="cls-9" d="M460.29,95.78S490,124.11,489.8,127.13l-.21-7.61S473.24,98.54,461.4,91Z" transform="translate(-214.93 -48)"/><path class="cls-10" d="M440.58,185.52s-5.25,46.94,5.21,82.49c0,0,20.21,38.87,43.67,62.22l.13-107S458.27,194.2,440.58,185.52Z" transform="translate(-214.93 -48)"/><path class="cls-11" d="M539.07,185.52s-22.81,11.33-49.48,37.75l-.13,107s43.63-40.2,50.22-60.11C539.68,270.12,549.61,230.2,539.07,185.52Z" transform="translate(-214.93 -48)"/><path class="cls-12" d="M489.46,330.23s-24.52,3.32-48.88,0c0,0-19.46-18.07-38.58-49.05a391.7,391.7,0,0,1-39.88-36.92s25,17.95,47.87,13.61,43,22.36,43,22.36S472.67,313.54,489.46,330.23Z" transform="translate(-214.93 -48)"/><path class="cls-13" d="M489.46,330.23s-24.52,3.32-48.88,0c0,0-19.46-18.07-38.58-49.05a391.7,391.7,0,0,1-39.88-36.92s25,17.95,47.87,13.61,43,22.36,43,22.36S472.67,313.54,489.46,330.23Z" transform="translate(-214.93 -48)"/><path class="cls-14" d="M489.46,330.23s21.14,3.32,54,0c0,0,24.34-22.06,35.26-49.38,0,0,19.66-16.4,45.3-43.53,0,0-36.17,27.08-52.2,20.55-18.86-7.67-57.53,47.43-57.53,47.43S496.25,323.57,489.46,330.23Z" transform="translate(-214.93 -48)"/><path class="cls-15" d="M489.46,330.23s21.14,3.32,54,0c0,0,24.34-22.06,35.26-49.38,0,0,19.66-16.4,45.3-43.53,0,0-36.17,27.08-52.2,20.55-18.86-7.67-57.53,47.43-57.53,47.43S496.25,323.57,489.46,330.23Z" transform="translate(-214.93 -48)"/><path class="cls-16" d="M451.75,278.7s-16.82-21.14-11.17-93.18c0,0-14.52-15.24-41.11-30.3,0,0-10.51,38.75,6.75,81.65,0,0,.25,12.19-36.55,4.43,0,0,17.55,21.62,40.32,16.57C429.56,253.54,451.75,278.7,451.75,278.7Z" transform="translate(-214.93 -48)"/><path class="cls-17" d="M451.75,278.7s-16.82-21.14-11.17-93.18c0,0-14.52-15.24-41.11-30.3,0,0-10.51,38.75,6.75,81.65,0,0,.25,12.19-36.55,4.43,0,0,17.55,21.62,40.32,16.57C429.56,253.54,451.75,278.7,451.75,278.7Z" transform="translate(-214.93 -48)"/><path class="cls-18" d="M531.57,284.51s24.26-26.52,34.49-27.08-6.45-50.58,15.55-103c0,0-16.4,6.38-42.54,31C539.07,185.52,553.55,255.46,531.57,284.51Z" transform="translate(-214.93 -48)"/><path class="cls-19" d="M531.57,284.51s24.26-26.52,34.49-27.08-6.45-50.58,15.55-103c0,0-16.4,6.38-42.54,31C539.07,185.52,553.55,255.46,531.57,284.51Z" transform="translate(-214.93 -48)"/><path class="cls-20" d="M566.28,256.87s23.21-14.91,50-74.14c0,0,6.74-29.23-16.6-35.9s-29.41,42.29-29.41,42.29-.34,4.28-.72,9.66c-.57,7.91-1.25,18.2-1.14,20.71C569.62,246.87,569.39,254.1,566.28,256.87Z" transform="translate(-214.93 -48)"/><path class="cls-21" d="M566.28,256.87s23.21-14.91,50-74.14c0,0,6.74-29.23-16.6-35.9s-29.41,42.29-29.41,42.29-.34,4.28-.72,9.66c-.57,7.91-1.25,18.2-1.14,20.71C569.62,246.87,569.39,254.1,566.28,256.87Z" transform="translate(-214.93 -48)"/><path class="cls-22" d="M566.79,257.28" transform="translate(-214.93 -48)"/><path class="cls-23" d="M566.79,257.28a9.06,9.06,0,0,0,2-2.32c.85-1.42,34.19-44.77,47.46-72.23,0,0,27.83-17.36,37.29-9.95s7.22,20.87,0,30.81-32,36.74-32,36.74-32.22,23.37-47,18.29A67.45,67.45,0,0,0,566.79,257.28Z" transform="translate(-214.93 -48)"/><path class="cls-24" d="M566.79,257.28a9.06,9.06,0,0,0,2-2.32c.85-1.42,34.19-44.77,47.46-72.23,0,0,27.83-17.36,37.29-9.95s7.22,20.87,0,30.81-32,36.74-32,36.74-32.22,23.37-47,18.29A67.45,67.45,0,0,0,566.79,257.28Z" transform="translate(-214.93 -48)"/><path class="cls-25" d="M371.45,151c-3.28,1.89-4.47,5.95-5.32,9.63-1.78,7.71-3.33,15.68-2.05,23.48A66.86,66.86,0,0,0,368,196.93c2.1,5.5,4.2,11,6.54,16.4,4.12,9.55,9,18.76,13.18,28.27a5.23,5.23,0,0,0,1.31,2,4.81,4.81,0,0,0,3.45.64c4.64-.37,13.74-.73,17.08-4.07.62-.63-.49.74,0,0,1-1.46-1.27-4.38-2-6-7.95-18-8.69-38.23-9.13-57.9-.06-2.63-.12-5.26,0-7.89A50,50,0,0,1,400,158.7a4.08,4.08,0,0,0,.1-2.73,3.93,3.93,0,0,0-2-1.64l-4-2c-4-2-8.12-4-12.58-4.35a17.41,17.41,0,0,0-7.49,1.16Z" transform="translate(-214.93 -48)"/><path class="cls-26" d="M371.45,151c-3.28,1.89-4.47,5.95-5.32,9.63-1.78,7.71-3.33,15.68-2.05,23.48A66.86,66.86,0,0,0,368,196.93c2.1,5.5,4.2,11,6.54,16.4,4.12,9.55,9,18.76,13.18,28.27a5.23,5.23,0,0,0,1.31,2,4.81,4.81,0,0,0,3.45.64c4.64-.37,13.74-.73,17.08-4.07.62-.63-.49.74,0,0,1-1.46-1.27-4.38-2-6-7.95-18-8.69-38.23-9.13-57.9-.06-2.63-.12-5.26,0-7.89A50,50,0,0,1,400,158.7a4.08,4.08,0,0,0,.1-2.73,3.93,3.93,0,0,0-2-1.64l-4-2c-4-2-8.12-4-12.58-4.35a17.41,17.41,0,0,0-7.49,1.16Z" transform="translate(-214.93 -48)"/><path class="cls-27" d="M362.38,182.07c-4.44-3.6-9.62-6.15-14.82-8.55a38.59,38.59,0,0,0-7.83-2.9,18,18,0,0,0-13.08,2.08,14.75,14.75,0,0,0-7,11.07,21.61,21.61,0,0,0,1.25,8.18c4.88,15.62,16,28.57,28.51,39.15l.89,1.15q5,6.15,10.57,11.88l.91.69,9.4,4.92a100.13,100.13,0,0,0,9.11,4.37c2,.8,4.06,1.46,6.13,2.09,3.75,1.15,7.6,2.21,11.51,2.09a17.15,17.15,0,0,1-6.34-1.71l-4.46-1.84c-1-.41-2-.82-2.9-1.32a32,32,0,0,1-3.79-2.53l-3.69-2.73c-1.39-1-2.64-3.43-3.9-4.62-1.09-1-2.23-.86-3.08-2.11l0-.07q6.87,1.51,13.86,2.36a34.91,34.91,0,0,0,6.21.33,56.85,56.85,0,0,1-5.59-9.84l-.34-1a17,17,0,0,1-.95-3c-1.21-4.44-4-8.27-6.16-12.32a53.08,53.08,0,0,1-2.75-6,91.54,91.54,0,0,0-3.65-9.41l-.55-1.59a106,106,0,0,1-6.27-17.75Z" transform="translate(-214.93 -48)"/><g class="cls-28"><path class="cls-29" d="M362.38,182.07c-4.44-3.6-9.62-6.15-14.82-8.55a38.59,38.59,0,0,0-7.83-2.9,18,18,0,0,0-13.08,2.08,14.75,14.75,0,0,0-7,11.07,21.61,21.61,0,0,0,1.25,8.18c4.88,15.62,16,28.57,28.51,39.15l.89,1.15q5,6.15,10.57,11.88l.91.69,9.4,4.92a100.13,100.13,0,0,0,9.11,4.37c2,.8,4.06,1.46,6.13,2.09,3.75,1.15,7.6,2.21,11.51,2.09a17.15,17.15,0,0,1-6.34-1.71l-4.46-1.84c-1-.41-2-.82-2.9-1.32a32,32,0,0,1-3.79-2.53l-3.69-2.73c-1.39-1-2.64-3.43-3.9-4.62-1.09-1-2.23-.86-3.08-2.11l0-.07q6.87,1.51,13.86,2.36a34.91,34.91,0,0,0,6.21.33,56.85,56.85,0,0,1-5.59-9.84l-.34-1a17,17,0,0,1-.95-3c-1.21-4.44-4-8.27-6.16-12.32a53.08,53.08,0,0,1-2.75-6,91.54,91.54,0,0,0-3.65-9.41l-.55-1.59a106,106,0,0,1-6.27-17.75Z" transform="translate(-214.93 -48)"/></g><path class="cls-30" d="M543.15,330.35a182.85,182.85,0,0,0,34-47.88,3.25,3.25,0,0,1,1.32-1.63,3,3,0,0,1,1.14-.22l7.48-.5c3.65-.25,8.13-.06,9.84,3.17,1,2,.74,4.71,2.48,6.12,1.57,1.27,3.93.69,5.71-.28,4.45-2.43,7.55-6.69,11.26-10.15A38.39,38.39,0,0,1,639,268.9a56.26,56.26,0,0,0-12.73,12.34c-1.95,2.61-3.67,5.38-5.38,8.14-4.62,7.46-9.25,14.92-13.25,22.72a55.24,55.24,0,0,0-5.42,14.16c-.33,1.67-.59,3.48-1.78,4.69a7.39,7.39,0,0,1-3.2,1.63,78.16,78.16,0,0,1-52.52-2.42Z" transform="translate(-214.93 -48)"/><g class="cls-28"><path class="cls-31" d="M543.15,330.35a182.85,182.85,0,0,0,34-47.88,3.25,3.25,0,0,1,1.32-1.63,3,3,0,0,1,1.14-.22l7.48-.5c3.65-.25,8.13-.06,9.84,3.17,1,2,.74,4.71,2.48,6.12,1.57,1.27,3.93.69,5.71-.28,4.45-2.43,7.55-6.69,11.26-10.15A38.39,38.39,0,0,1,639,268.9a56.26,56.26,0,0,0-12.73,12.34c-1.95,2.61-3.67,5.38-5.38,8.14-4.62,7.46-9.25,14.92-13.25,22.72a55.24,55.24,0,0,0-5.42,14.16c-.33,1.67-.59,3.48-1.78,4.69a7.39,7.39,0,0,1-3.2,1.63,78.16,78.16,0,0,1-52.52-2.42Z" transform="translate(-214.93 -48)"/></g><path class="cls-32" d="M598.77,332c2.41-1.25,2.7-4.48,3.24-7.13a35.07,35.07,0,0,1,3.08-8.27c6.47-13.41,14.83-25.8,23.16-38.14,2.46-3.65,5.23-7.54,9.43-8.86,3-.93,6.22-.39,9.3.15a64,64,0,0,1,12.55,3.12,21.28,21.28,0,0,1,10.13,7.76,3.45,3.45,0,0,1,.72,2.13,3.84,3.84,0,0,1-.9,1.8L662.41,294c-7.25,9.71-14.69,19.8-17.36,31.62-.47,2.07-.87,4.33-2.41,5.8a9.16,9.16,0,0,1-4.88,1.94,81.21,81.21,0,0,1-24.8.51c-4.35-.58-8.77-1.51-13.07-.61Z" transform="translate(-214.93 -48)"/><g class="cls-28"><path class="cls-33" d="M598.77,332c2.41-1.25,2.7-4.48,3.24-7.13a35.07,35.07,0,0,1,3.08-8.27c6.47-13.41,14.83-25.8,23.16-38.14,2.46-3.65,5.23-7.54,9.43-8.86,3-.93,6.22-.39,9.3.15a64,64,0,0,1,12.55,3.12,21.28,21.28,0,0,1,10.13,7.76,3.45,3.45,0,0,1,.72,2.13,3.84,3.84,0,0,1-.9,1.8L662.41,294c-7.25,9.71-14.69,19.8-17.36,31.62-.47,2.07-.87,4.33-2.41,5.8a9.16,9.16,0,0,1-4.88,1.94,81.21,81.21,0,0,1-24.8.51c-4.35-.58-8.77-1.51-13.07-.61Z" transform="translate(-214.93 -48)"/></g><path class="cls-34" d="M639.86,332.93a20.3,20.3,0,0,0,5-7.51c.78-2.07,1.23-4.26,2-6.35a44.26,44.26,0,0,1,4.23-8.35,259,259,0,0,1,19.43-27.67l-.5-1.47,8.38,6.06A280.33,280.33,0,0,0,658,329.71a6,6,0,0,1-1.29,2.31,5.74,5.74,0,0,1-3.26,1.22,48,48,0,0,1-13.12.05Z" transform="translate(-214.93 -48)"/><g class="cls-28"><path class="cls-35" d="M639.86,332.93a20.3,20.3,0,0,0,5-7.51c.78-2.07,1.23-4.26,2-6.35a44.26,44.26,0,0,1,4.23-8.35,259,259,0,0,1,19.43-27.67l-.5-1.47,8.38,6.06A280.33,280.33,0,0,0,658,329.71a6,6,0,0,1-1.29,2.31,5.74,5.74,0,0,1-3.26,1.22,48,48,0,0,1-13.12.05Z" transform="translate(-214.93 -48)"/></g><path class="cls-36" d="M657.2,331.32a235.82,235.82,0,0,1,17.16-38.45,11.21,11.21,0,0,1,2.13-3c1.74-1.56,4.22-1.92,6.55-2.14a117.38,117.38,0,0,1,31.37,1.31,68.06,68.06,0,0,1,9.54,2.33,47.43,47.43,0,0,1,13.47,7.07c2.21,1.65,4.35,3.61,5.28,6.2a3.89,3.89,0,0,1,.16,2.62,4.84,4.84,0,0,1-1,1.5c-8.35,9.52-18.9,16.92-30.12,22.79a13,13,0,0,1-3.86,1.51,21.16,21.16,0,0,1-4.21,0,46.37,46.37,0,0,0-5.27.25,215.58,215.58,0,0,1-40.88-.46Z" transform="translate(-214.93 -48)"/><g class="cls-28"><path class="cls-37" d="M657.2,331.32a235.82,235.82,0,0,1,17.16-38.45,11.21,11.21,0,0,1,2.13-3c1.74-1.56,4.22-1.92,6.55-2.14a117.38,117.38,0,0,1,31.37,1.31,68.06,68.06,0,0,1,9.54,2.33,47.43,47.43,0,0,1,13.47,7.07c2.21,1.65,4.35,3.61,5.28,6.2a3.89,3.89,0,0,1,.16,2.62,4.84,4.84,0,0,1-1,1.5c-8.35,9.52-18.9,16.92-30.12,22.79a13,13,0,0,1-3.86,1.51,21.16,21.16,0,0,1-4.21,0,46.37,46.37,0,0,0-5.27.25,215.58,215.58,0,0,1-40.88-.46Z" transform="translate(-214.93 -48)"/></g><path class="cls-38" d="M369.54,280.22c8.9-1.86,17-1.07,26,.11a18.11,18.11,0,0,1,4.14.91c4.87,1.83,7.58,6.87,10.27,11.32a134.62,134.62,0,0,0,13.47,18.16A231.58,231.58,0,0,0,441,329c.63.59,1.21,1.73.45,2.13a1.46,1.46,0,0,1-.88,0,71.43,71.43,0,0,0-13.48-.76l-27,.2a3.35,3.35,0,0,1-1.63-.27,3.42,3.42,0,0,1-1.25-1.59c-8.25-16.61-17.16-33.2-27.67-48.47Z" transform="translate(-214.93 -48)"/><g class="cls-28"><path class="cls-39" d="M369.54,280.22c8.9-1.86,17-1.07,26,.11a18.11,18.11,0,0,1,4.14.91c4.87,1.83,7.58,6.87,10.27,11.32a134.62,134.62,0,0,0,13.47,18.16A231.58,231.58,0,0,0,441,329c.63.59,1.21,1.73.45,2.13a1.46,1.46,0,0,1-.88,0,71.43,71.43,0,0,0-13.48-.76l-27,.2a3.35,3.35,0,0,1-1.63-.27,3.42,3.42,0,0,1-1.25-1.59c-8.25-16.61-17.16-33.2-27.67-48.47Z" transform="translate(-214.93 -48)"/></g><path class="cls-40" d="M314.36,283.66l22.22-11.51c3.92-2,8-4.1,12.38-4.4,5.49-.37,10.87,2.13,15,5.72s7.3,8.21,10.3,12.82a447,447,0,0,1,22.87,39.43l.51,2.66a194.15,194.15,0,0,1-37.1,1.27,198.84,198.84,0,0,0-35.81-37.95c-3.81-3.09-7.95-6.14-12.8-6.89Z" transform="translate(-214.93 -48)"/><g class="cls-28"><path class="cls-41" d="M314.36,283.66l22.22-11.51c3.92-2,8-4.1,12.38-4.4,5.49-.37,10.87,2.13,15,5.72s7.3,8.21,10.3,12.82a447,447,0,0,1,22.87,39.43l.51,2.66a194.15,194.15,0,0,1-37.1,1.27,198.84,198.84,0,0,0-35.81-37.95c-3.81-3.09-7.95-6.14-12.8-6.89Z" transform="translate(-214.93 -48)"/></g><path class="cls-42" d="M361.08,329.47C348.9,313.1,334.91,297.83,318,286.41c-1.59-1.07-6.95-2.14-8.66-1.27l0,.17c-2.3,1.41-3.19,1.58-3.58,4.22a125.14,125.14,0,0,1,39.58,37.26A9.09,9.09,0,0,0,348,329.7c1.47.89,3.29.84,5,.78l8.38-.34Z" transform="translate(-214.93 -48)"/><g class="cls-28"><path class="cls-43" d="M361.08,329.47C348.9,313.1,334.91,297.83,318,286.41c-1.59-1.07-6.95-2.14-8.66-1.27l0,.17c-2.3,1.41-3.19,1.58-3.58,4.22a125.14,125.14,0,0,1,39.58,37.26A9.09,9.09,0,0,0,348,329.7c1.47.89,3.29.84,5,.78l8.38-.34Z" transform="translate(-214.93 -48)"/></g><path class="cls-44" d="M336.19,313.56a119,119,0,0,0-29.55-24.23l-.22-.62c-19.67-3.51-40.81-3.16-58.55,6-4.11,2.12-8.08,4.79-10.76,8.56a4.34,4.34,0,0,0-1.05,3.05,4.85,4.85,0,0,0,1.21,2.16c3.49,4.27,7,8.61,11.6,11.72,2,1.4,4.27,2.53,6.38,3.84,8.24,5.15,15.18,13.37,24.8,14.77a34.33,34.33,0,0,0,5.55.24c15.62-.18,31.19-1.77,46.73-3.36l14.6-1.5c1.59-.16,3.72-1.09,3.23-2.61a2.81,2.81,0,0,0-.92-1.14,49.08,49.08,0,0,1-11.57-15Z" transform="translate(-214.93 -48)"/><g class="cls-28"><path class="cls-45" d="M336.19,313.56a119,119,0,0,0-29.55-24.23l-.22-.62c-19.67-3.51-40.81-3.16-58.55,6-4.11,2.12-8.08,4.79-10.76,8.56a4.34,4.34,0,0,0-1.05,3.05,4.85,4.85,0,0,0,1.21,2.16c3.49,4.27,7,8.61,11.6,11.72,2,1.4,4.27,2.53,6.38,3.84,8.24,5.15,15.18,13.37,24.8,14.77a34.33,34.33,0,0,0,5.55.24c15.62-.18,31.19-1.77,46.73-3.36l14.6-1.5c1.59-.16,3.72-1.09,3.23-2.61a2.81,2.81,0,0,0-.92-1.14,49.08,49.08,0,0,1-11.57-15Z" transform="translate(-214.93 -48)"/></g><path class="cls-46" d="M319.09,388.23c7.61-2.22,14.62-6.24,21-10.89,23.2-16.8,18.34-10.75,26.7-17.27,20.9-16.3,16.24-11.76,22.42-17.83-3.36,9.09-7.62,13.73-19.78,24.61-7.23,6.46-12.24,10.46-20.21,20.7-.26.34-.45.76-.84.94a2.11,2.11,0,0,1-1.17.07c-2.79-.39-5.56-.95-8.36-1.17-6-.47-6-.47-14.36,1Z" transform="translate(-214.93 -48)"/><path class="cls-47" d="M530.84,375.88a15.55,15.55,0,0,1,4.47,3.21q2.09,1.89,4,3.93a84.54,84.54,0,0,1,7.33,8.7c.1.13.33,0,.23-.14a86.21,86.21,0,0,0-7.57-9c-1.37-1.42-2.8-2.79-4.27-4.11a14.39,14.39,0,0,0-4.16-2.89c-.16-.07-.23.19-.07.26Z" transform="translate(-214.93 -48)"/><path class="cls-48" d="M531.35,375.54l33.76,22.65c3,2,6,4,9.4,5.05l1.94.64A152,152,0,0,0,592.12,411a19.05,19.05,0,0,1,4.76,2.19l-17,7.75-1.87.69c-.18.63-1,.84-1.59,1s-1.38.65-1.26,1.3a1.57,1.57,0,0,0,.4.66,24.61,24.61,0,0,1,2.62,3.63.83.83,0,0,1,.17.6c-.08.33-.49.43-.82.49a9.44,9.44,0,0,0-6.79,5.94l-1.53-1.52c-1.57-6.11-2.12-13.22-5.05-18.8-4.2-8-10.26-14.85-16.27-21.6" transform="translate(-214.93 -48)"/><path class="cls-49" d="M552.94,333.57c.14,2,5.13,5.4,6.67,6.67,5.87,4.83,10.94,7.11,17.06,11.61,2.92,2.15,3.61,5.95,6.28,8.4,4.4,4,10.54,6.87,14.94,10.89,3.56,3.26,5.74,7.79,9.85,10.5,4.36,2.88,6.93,18,11.89,18.62,1.68.22,8.35-3.52,10-3.33.7.08,6-.19,6.67,0,1.69.45,5-.66,6.67,0,16.11,4.59,24.59-1.76,41.3-.59,4.62.33,9.36.51,13.79-.84s8.55-4.5,9.89-8.94c2.18-7.25-3.49-14.3-8.74-19.77l-18-18.79a110.06,110.06,0,0,0,25.58-14.21l3.6-1.31a310.12,310.12,0,0,1-35.81.87l-1.62.12L659.32,333a1.48,1.48,0,0,1-1.12-.37c-.26-.32,0-1,.39-.83a144.14,144.14,0,0,1-17.49,1.52l-1.87.09-10.24.47-9.65.45-1.28-.44c-5.68.74-11.54-2.11-17.09-.67-.37.09-.84.18-1.09-.11a1.51,1.51,0,0,1-.21-.67c-.2-.82-1.5-1.21-1.89-.47l-1.43.73-1.12.2-2.73.58a76.44,76.44,0,0,1-37.06-.39" transform="translate(-214.93 -48)"/><path class="cls-49" d="M552.94,333.57c.14,2,5.13,5.4,6.67,6.67,5.87,4.83,10.94,7.11,17.06,11.61,2.92,2.15,3.61,5.95,6.28,8.4,4.4,4,10.54,6.87,14.94,10.89,3.56,3.26,5.74,7.79,9.85,10.5,4.36,2.88,6.93,18,11.89,18.62,1.68.22,8.35-3.52,10-3.33.7.08,6-.19,6.67,0,1.69.45,5-.66,6.67,0,16.11,4.59,24.59-1.76,41.3-.59,4.62.33,9.36.51,13.79-.84s8.55-4.5,9.89-8.94c2.18-7.25-3.49-14.3-8.74-19.77l-18-18.79a110.06,110.06,0,0,0,25.58-14.21l3.6-1.31a310.12,310.12,0,0,1-35.81.87l-1.62.12L659.32,333a1.48,1.48,0,0,1-1.12-.37c-.26-.32,0-1,.39-.83a144.14,144.14,0,0,1-17.49,1.52l-1.87.09-10.24.47-9.65.45-1.28-.44c-5.68.74-11.54-2.11-17.09-.67-.37.09-.84.18-1.09-.11a1.51,1.51,0,0,1-.21-.67c-.2-.82-1.5-1.21-1.89-.47l-1.43.73-1.12.2-2.73.58a76.44,76.44,0,0,1-37.06-.39" transform="translate(-214.93 -48)"/><g class="cls-28"><path class="cls-50" d="M552.94,333.57c.14,2,5.13,5.4,6.67,6.67,5.87,4.83,10.94,7.11,17.06,11.61,2.92,2.15,3.61,5.95,6.28,8.4,4.4,4,10.54,6.87,14.94,10.89,3.56,3.26,5.74,7.79,9.85,10.5,4.36,2.88,6.93,18,11.89,18.62,1.68.22,8.35-3.52,10-3.33.7.08,6-.19,6.67,0,1.69.45,5-.66,6.67,0,16.11,4.59,24.59-1.76,41.3-.59,4.62.33,9.36.51,13.79-.84s8.55-4.5,9.89-8.94c2.18-7.25-3.49-14.3-8.74-19.77l-18-18.79a110.06,110.06,0,0,0,25.58-14.21l3.6-1.31a310.12,310.12,0,0,1-35.81.87l-1.62.12L659.32,333a1.48,1.48,0,0,1-1.12-.37c-.26-.32,0-1,.39-.83a144.14,144.14,0,0,1-17.49,1.52l-1.87.09-10.24.47-9.65.45-1.28-.44c-5.68.74-11.54-2.11-17.09-.67-.37.09-.84.18-1.09-.11a1.51,1.51,0,0,1-.21-.67c-.2-.82-1.5-1.21-1.89-.47l-1.43.73-1.12.2-2.73.58a76.44,76.44,0,0,1-37.06-.39" transform="translate(-214.93 -48)"/></g><g id="_---" data-name="---"><path class="cls-51" d="M555.6,335.77l4,3.05,6.09,4.6c9.08,6.86,18.19,13.75,26.31,21.72,1.53,1.5,3,3,4.51,4.59,1.92,2,3.82,4,5.72,6l1.63,1.73,6.45,6.82,1.35,2.84c1.48,1.77,2.92,3.57,4.3,5.42,3.12,4.19,6.08,9.34,4.61,14.35-1.16,4-5,6.75-9,7.68s-8.26.29-12.28-.68c-17-4.11-31.89-14-46.41-23.71l-21.71-14.52a158,158,0,0,1,30.29,34.6c6.22,9.64,11.52,21.42,7.87,32.3l-17.75,2.72a18,18,0,0,1-5.76.26c-3.4-.58-6.14-3-8.67-5.38Q514,418.48,492.54,395l-2.24.41c-17.12,8.51-30.54,23-46.68,33.2-4.87,3.1-10,5.84-14.23,9.8-.59.56-1.34,1.2-2.13,1a2.52,2.52,0,0,1-1-.71,16.13,16.13,0,0,0-13.32-4.28,4.84,4.84,0,0,1-1.93.05,3.57,3.57,0,0,1-1.68-1.25,12,12,0,0,1-2.66-9.16l-.44-3.66c.84-5.07,5.11-8.74,7.87-13.08.82-1.28,1.51-2.64,2.33-3.92a47.14,47.14,0,0,1,4.77-5.88l25.86-28.58c-8.33,5.21-17.64,8.62-26.36,13.15-4.77,2.48-9.37,5.29-13.93,8.14-11,6.86-21.93,13.93-33.72,19.34a40.8,40.8,0,0,1-12.49,3.95c-4.36.47-9-.36-12.46-3.08s-5.37-7.54-4-11.7l.27-2c2.13-6.24,6.18-11.62,10.59-16.52a114.16,114.16,0,0,1,8.29-8.32c4.53-4.11,9.39-7.87,13.79-12.13s8.37-9.13,10.65-14.81a48.17,48.17,0,0,1-9.19,7.43c-10.56,7.2-21.12,14.4-31.86,21.32-1.95,1.26-3.9,2.5-5.85,3.74l-2.06,1.78c-8.21,4.57-16.64,9.21-25.93,10.6-2.4.36-4.84.5-7.27.63l-23,1.27-.79-.2a28.11,28.11,0,0,1-7.27-2.75,10.27,10.27,0,0,1-4.83-5.88c-1-3.78.94-7.69,3.2-10.88,4.2-5.93,9.62-10.87,15.1-15.64q5-4.38,10.19-8.63a120,120,0,0,0-16-7.78l-1.6-1.24c3.49.15,7,.31,10.47.27,5.72-.05,11.43-.62,17.13-1.18l39.76-3.92,1.18-.59a4.9,4.9,0,0,0,.72-.72,1.23,1.23,0,0,0,.27-.45,1.16,1.16,0,0,0,0-.49,2,2,0,0,0-1.07-1.44,5.15,5.15,0,0,0,2.29.41l1.19-.06a40.86,40.86,0,0,0,8.83-.63l.07-.31,3.87.12c6.8.21,13.61.43,20.4,0l1.12-.18,10.08-.92.83.38c.17.93,1.38,1.16,2.33,1.17q9.92.12,19.83,0c6.36-.1,12.77-.29,19,.92a5,5,0,0,0,1.76.14,1.57,1.57,0,0,0,1.31-1h.84a50.49,50.49,0,0,0,8.77.94q11.22.51,22.46.34a11.31,11.31,0,0,0,2.85-.28l1.74-.06,3-.33c3.9-.44,7.87-.87,11.73-.14l1.46-.24a26.47,26.47,0,0,0,5.9.56q18.82.3,37.62-.94a36,36,0,0,1,4.76-.12c3.89.23,7.6,1.69,11.15,3.31Z" transform="translate(-214.93 -48)"/></g><g class="cls-28"><path class="cls-52" d="M555.6,335.77l4,3.05,6.09,4.6c9.08,6.86,18.19,13.75,26.31,21.72,1.53,1.5,3,3,4.51,4.59,1.92,2,3.82,4,5.72,6l1.63,1.73,6.45,6.82,1.35,2.84c1.48,1.77,2.92,3.57,4.3,5.42,3.12,4.19,6.08,9.34,4.61,14.35-1.16,4-5,6.75-9,7.68s-8.26.29-12.28-.68c-17-4.11-31.89-14-46.41-23.71l-21.71-14.52a158,158,0,0,1,30.29,34.6c6.22,9.64,11.52,21.42,7.87,32.3l-17.75,2.72a18,18,0,0,1-5.76.26c-3.4-.58-6.14-3-8.67-5.39Q514,418.48,492.54,395l-2.24.41c-17.12,8.51-30.54,23-46.68,33.2-4.87,3.1-10,5.84-14.23,9.8-.59.56-1.34,1.2-2.13,1a2.52,2.52,0,0,1-1-.71,16.13,16.13,0,0,0-13.32-4.28,4.84,4.84,0,0,1-1.93.05,3.57,3.57,0,0,1-1.68-1.25,12,12,0,0,1-2.66-9.16l-.44-3.66c.84-5.07,5.11-8.74,7.87-13.08.82-1.28,1.51-2.64,2.33-3.92a47.14,47.14,0,0,1,4.77-5.88l25.86-28.58c-8.33,5.21-17.64,8.62-26.36,13.15-4.77,2.48-9.37,5.29-13.93,8.14-11,6.86-21.93,13.93-33.72,19.34a40.8,40.8,0,0,1-12.49,3.95c-4.36.47-9-.36-12.46-3.08s-5.37-7.54-4-11.7l.27-2c2.13-6.24,6.18-11.62,10.59-16.52a114.16,114.16,0,0,1,8.29-8.32c4.53-4.11,9.39-7.87,13.79-12.13s8.37-9.13,10.65-14.81a48.17,48.17,0,0,1-9.19,7.43c-10.56,7.2-21.12,14.4-31.86,21.32-1.95,1.26-3.9,2.5-5.85,3.74l-2.06,1.78c-8.21,4.57-16.64,9.21-25.93,10.6-2.4.36-4.84.5-7.27.63l-23,1.27-.79-.2a28.25,28.25,0,0,1-7.27-2.75,10.27,10.27,0,0,1-4.83-5.88c-1-3.78.94-7.69,3.2-10.88,4.2-5.93,9.62-10.87,15.1-15.64q5-4.38,10.19-8.63a120,120,0,0,0-16-7.78l-1.6-1.24c3.49.15,7,.31,10.47.27,5.72-.05,11.43-.62,17.13-1.18l39.76-3.92,1.18-.59a4.9,4.9,0,0,0,.72-.72,1.23,1.23,0,0,0,.27-.45,1.16,1.16,0,0,0,0-.49,2,2,0,0,0-1.07-1.44,5.15,5.15,0,0,0,2.29.41l1.19-.06a40.86,40.86,0,0,0,8.83-.63c0-.1.05-.21.07-.31l3.87.12c6.8.21,13.61.43,20.4,0l1.12-.18,10.08-.92.83.38c.17.93,1.38,1.16,2.33,1.17q9.92.12,19.83,0c6.36-.1,12.77-.29,19,.92a5,5,0,0,0,1.76.14,1.57,1.57,0,0,0,1.31-1h.84a50.49,50.49,0,0,0,8.77.94q11.22.51,22.46.34a11.31,11.31,0,0,0,2.85-.28l1.74-.06,3-.33c3.9-.44,7.87-.87,11.73-.14l1.46-.24a26.47,26.47,0,0,0,5.9.56q18.82.3,37.62-.94a36,36,0,0,1,4.76-.12c3.89.23,7.6,1.69,11.15,3.31Z" transform="translate(-214.93 -48)"/></g><path class="cls-53" d="M489.79,394.29c-20.51,9-34.54,28.94-54.82,38.44a16.45,16.45,0,0,1-7.33,2c-3.95-.11-7.88-2.65-11.62-1.39-1.52.51-3.07,1.63-4.55,1a3.9,3.9,0,0,1-1.49-1.28c-2.36-3-4.2-4.75-2.43-8.46l-1.52-3c-2.42,4.83-6.29,11.34-8.71,16.17-2.11,4.21-4.24,8.48-5.16,13.09s-.5,9.7,2.17,13.58c1.34,1.95,3.18,3.5,4.67,5.33l.94.64c2.3,2.14,5.81,2.21,8.93,1.87a53,53,0,0,0,16.76-4.71,108.68,108.68,0,0,0,9.6-5.36l31.26-18.91c2.2-1.33,4.53-1.23,6.42-3l1.74-1.36,4-2.41c1.18-.71,2.36-1.41,3.59-2,.61-.3,1.24-.58,1.85-.9a17.66,17.66,0,0,0,4.23-3l1.34-1.14c2.19,1,4.29,2.18,6.38,3.37l12.54,7.11,5.88,3.34q6.22,3.58,12.42,7.24l6.57,3.85a31.92,31.92,0,0,1,6.51,4.61l3.36.83a66,66,0,0,0,21.84,10.34c4.06,1.06,8.33,1.74,12.44.92s8.08-3.34,9.71-7.21a14.71,14.71,0,0,0,1-4c.76-6.09-.59-12.29-2.89-18a55.71,55.71,0,0,0-6.22-11.39L578.07,429a8.19,8.19,0,0,0-7.68,8.18c-1.91-1.54-4.29,1.43-6.7,1.85-2.19.37-4.31-1.47-6.49-1.05-3.21.61-3.86,5.34-6.83,6.7-2.33,1.06-5-.37-7.07-1.85a140.55,140.55,0,0,1-13.63-11.46q-19.54-18-37.57-37.65Z" transform="translate(-214.93 -48)"/><g class="cls-28"><path class="cls-54" d="M489.79,394.29c-20.51,9-34.54,28.94-54.82,38.44a16.45,16.45,0,0,1-7.33,2c-3.95-.11-7.88-2.65-11.62-1.39-1.52.51-3.07,1.63-4.55,1a3.9,3.9,0,0,1-1.49-1.28c-2.36-3-4.2-4.75-2.43-8.46l-1.52-3c-2.42,4.83-6.29,11.34-8.71,16.17-2.11,4.21-4.24,8.48-5.16,13.09s-.5,9.7,2.17,13.58c1.34,1.95,3.18,3.5,4.67,5.33l.94.64c2.3,2.14,5.81,2.21,8.93,1.87a53,53,0,0,0,16.76-4.71,108.68,108.68,0,0,0,9.6-5.36l31.26-18.91c2.2-1.33,4.53-1.23,6.42-3l1.74-1.36,4-2.41c1.18-.71,2.36-1.41,3.59-2,.61-.3,1.24-.58,1.85-.9a17.66,17.66,0,0,0,4.23-3l1.34-1.14c2.19,1,4.29,2.18,6.38,3.37l12.54,7.11,5.88,3.34q6.22,3.58,12.42,7.24l6.57,3.85a31.92,31.92,0,0,1,6.51,4.61l3.36.83a66,66,0,0,0,21.84,10.34c4.06,1.06,8.33,1.74,12.44.92s8.08-3.34,9.71-7.21a14.71,14.71,0,0,0,1-4c.76-6.09-.59-12.29-2.89-18a55.71,55.71,0,0,0-6.22-11.39L578.07,429a8.19,8.19,0,0,0-7.68,8.18c-1.91-1.54-4.29,1.43-6.7,1.85-2.19.37-4.31-1.47-6.49-1.05-3.21.61-3.86,5.34-6.83,6.7-2.33,1.06-5-.37-7.07-1.85a140.55,140.55,0,0,1-13.63-11.46q-19.54-18-37.57-37.65Z" transform="translate(-214.93 -48)"/></g><path class="cls-55" d="M399.55,433.61c-1,4.59-4.95,9-6.67,13.34s-.74,8.7,0,13.33,5.38,9.18,10,10c-13.61,6.48-30.68,10.61-44.28,17.1-6.22-3.83-6.84-12.65-5.49-19.83s3.93-14.65,1.58-21.57a21.85,21.85,0,0,0-17.41-6.16c.82-3.44,5.12-4.5,8.64-4.91l25.74-3c4.31-.5,8.62-1,12.94-1.16a82.21,82.21,0,0,1,12.05.44Z" transform="translate(-214.93 -48)"/><g class="cls-28"><path class="cls-56" d="M399.55,433.61c-1,4.59-4.95,9-6.67,13.34s-.74,8.7,0,13.33,5.38,9.18,10,10c-13.61,6.48-30.68,10.61-44.28,17.1-6.22-3.83-6.84-12.65-5.49-19.83s3.93-14.65,1.58-21.57a21.85,21.85,0,0,0-17.41-6.16c.82-3.44,5.12-4.5,8.64-4.91l25.74-3c4.31-.5,8.62-1,12.94-1.16a82.21,82.21,0,0,1,12.05.44Z" transform="translate(-214.93 -48)"/></g><path class="cls-57" d="M343.46,444.46c-3.92-3.24-8.58-5.46-13.23-7.52a274.45,274.45,0,0,0-47.69-16c-4.56-1.08-9.39-2-13.87-.64a16.81,16.81,0,0,0-10,9.52,27.24,27.24,0,0,0-1.63,14c4.52-.08,9,1,13.38,2l43,10.24c-6.41,18.25-22.9,31.43-30.05,49.4a425.33,425.33,0,0,0,59.87-18.06c1.66-.63,3.46-1.4,4.27-3a7.72,7.72,0,0,0,.55-3.58,62,62,0,0,1,1.49-13.09c1-4.32,2.4-8.61,2.27-13s-2.28-9.16-6.41-10.74Z" transform="translate(-214.93 -48)"/><g class="cls-28"><path class="cls-58" d="M343.46,444.46c-3.92-3.24-8.58-5.46-13.23-7.52a274.45,274.45,0,0,0-47.69-16c-4.56-1.08-9.39-2-13.87-.64a16.81,16.81,0,0,0-10,9.52,27.24,27.24,0,0,0-1.63,14c4.52-.08,9,1,13.38,2l43,10.24c-6.41,18.25-22.9,31.43-30.05,49.4a425.33,425.33,0,0,0,59.87-18.06c1.66-.63,3.46-1.4,4.27-3a7.72,7.72,0,0,0,.55-3.58,62,62,0,0,1,1.49-13.09c1-4.32,2.4-8.61,2.27-13s-2.28-9.16-6.41-10.74Z" transform="translate(-214.93 -48)"/></g><path class="cls-59" d="M313,456.24a438.23,438.23,0,0,0-49-11.59,17.9,17.9,0,0,0-5.15-.39,18.12,18.12,0,0,0-5.49,1.87c-11.62,5.41-24.08,11.6-29.83,23.06l-1,1.55c-3,4.41-5.79,9.14-7,14.36s-.66,11,2.44,15.41a20.38,20.38,0,0,0,7.76,6.23c6.95,3.4,15,4.06,22.68,2.9s14.94-4.05,21.89-7.45c6.77-3.3,13.39-7.18,18.54-12.66,1.59-1.7,3-3.53,4.44-5.37a243.5,243.5,0,0,0,17.87-27Z" transform="translate(-214.93 -48)"/><g class="cls-28"><path class="cls-60" d="M313,456.24a438.23,438.23,0,0,0-49-11.59,17.9,17.9,0,0,0-5.15-.39,18.12,18.12,0,0,0-5.49,1.87c-11.62,5.41-24.08,11.6-29.83,23.06l-1,1.55c-3,4.41-5.79,9.14-7,14.36s-.66,11,2.44,15.41a20.38,20.38,0,0,0,7.76,6.23c6.95,3.4,15,4.06,22.68,2.9s14.94-4.05,21.89-7.45c6.77-3.3,13.39-7.18,18.54-12.66,1.59-1.7,3-3.53,4.44-5.37a243.5,243.5,0,0,0,17.87-27Z" transform="translate(-214.93 -48)"/></g><path class="cls-61" d="M582.54,430.8a49.11,49.11,0,0,1,8.31,35.56c-.18,1.1-.36,2.35.33,3.23a3.9,3.9,0,0,0,1.38,1,444.5,444.5,0,0,1,48.75,29.26,86.45,86.45,0,0,0-24.63-46.34L648.16,436c-16,1.21-32.58,2.33-47.44-3.62-5-2-10.13-4.79-15.33-3.58Z" transform="translate(-214.93 -48)"/><g class="cls-28"><path class="cls-62" d="M582.54,430.8a49.11,49.11,0,0,1,8.31,35.56c-.18,1.1-.36,2.35.33,3.23a3.9,3.9,0,0,0,1.38,1,444.5,444.5,0,0,1,48.75,29.26,86.45,86.45,0,0,0-24.63-46.34L648.16,436c-16,1.21-32.58,2.33-47.44-3.62-5-2-10.13-4.79-15.33-3.58Z" transform="translate(-214.93 -48)"/></g><path class="cls-63" d="M620.81,454c10-2.06,17.64-9.84,26.17-15.45,12.39-8.16,27.08-11.91,41.46-15.54,13.2-3.32,27.73-6.52,39.92-.47,3.54,1.76,7.08,5.15,6.31,9-.72,3.65-4.76,5.47-8.3,6.62a199.53,199.53,0,0,1-40.8,8.6A195.67,195.67,0,0,1,732,451.52c18,4.06,37.32,12.44,44.22,29.57,3.73,9.27,2.26,21.54-6.15,26.94a24.21,24.21,0,0,1-9.57,3.23c-18.75,2.87-37.24-4.93-55.17-11.11s-38.44-10.69-55.24-1.9a175.74,175.74,0,0,0-27.37-42.39Z" transform="translate(-214.93 -48)"/><g class="cls-28"><path class="cls-64" d="M620.81,454c10-2.06,17.64-9.84,26.17-15.45,12.39-8.16,27.08-11.91,41.46-15.54,13.2-3.32,27.73-6.52,39.92-.47,3.54,1.76,7.08,5.15,6.31,9-.72,3.65-4.76,5.47-8.3,6.62a199.53,199.53,0,0,1-40.8,8.6A195.67,195.67,0,0,1,732,451.52c18,4.06,37.32,12.44,44.22,29.57,3.73,9.27,2.26,21.54-6.15,26.94a24.21,24.21,0,0,1-9.57,3.23c-18.75,2.87-37.24-4.93-55.17-11.11s-38.44-10.69-55.24-1.9a175.74,175.74,0,0,0-27.37-42.39Z" transform="translate(-214.93 -48)"/></g><path class="cls-65" d="M392.88,483.63c-9.16,6.05-16.28,9.16-26,14.24-7.57,3.95-15.44,7.69-21.62,13.59s-10.49,14.53-8.83,22.91a19.91,19.91,0,0,0,12.39,14.41,21.65,21.65,0,0,0,19-2.16c10.22-6.57,13.28-19.89,15.33-31.87s4.74-25.28,14.65-32.32Z" transform="translate(-214.93 -48)"/><g class="cls-28"><path class="cls-66" d="M392.88,483.63c-9.16,6.05-16.28,9.16-26,14.24-7.57,3.95-15.44,7.69-21.62,13.59s-10.49,14.53-8.83,22.91a19.91,19.91,0,0,0,12.39,14.41,21.65,21.65,0,0,0,19-2.16c10.22-6.57,13.28-19.89,15.33-31.87s4.74-25.28,14.65-32.32Z" transform="translate(-214.93 -48)"/></g><path class="cls-67" d="M578,486.31c2.34.28,4.24,2,5.81,3.77,6.77,7.58,10.76,17.16,15.55,26.13s10.92,17.85,20.11,22.21c5.05,2.39,11.41,3.11,16-.08a12.79,12.79,0,0,0,5.11-8.5c1.26-8-4.19-15.44-9.83-21.26-12.68-13.09-29.62-24.05-47.79-22.67Z" transform="translate(-214.93 -48)"/><g class="cls-28"><path class="cls-68" d="M578,486.31c2.34.28,4.24,2,5.81,3.77,6.77,7.58,10.76,17.16,15.55,26.13s10.92,17.85,20.11,22.21c5.05,2.39,11.41,3.11,16-.08a12.79,12.79,0,0,0,5.11-8.5c1.26-8-4.19-15.44-9.83-21.26-12.68-13.09-29.62-24.05-47.79-22.67Z" transform="translate(-214.93 -48)"/></g><path class="cls-69" d="M481.39,604.94c.4,13.22-13.75,23.77-12.76,37,.49,6.42,4.71,12.15,10.09,15.7s11.8,5.18,18.18,6.07a16.65,16.65,0,0,0,7.47-.21c5.33-1.75,7.82-7.84,8.92-13.35.93-4.65,1.35-9.53.07-14.1-1.67-6-6-10.72-9.57-15.77s-6.57-11.25-5-17.24l1.81-1.52a365.9,365.9,0,0,1,81.13,29.7,5.05,5.05,0,0,0,2.86.8c2.26-.31,3-3.2,3.1-5.48.48-7.36.93-15-1.74-21.89-4.72-12.21-17.61-18.73-28.79-25.53A171.9,171.9,0,0,1,517.58,546a145.4,145.4,0,0,0,42.61,24c1.72.62,3.65,1.19,5.31.42s2.51-2.81,3.14-4.62c2.47-7.19,4.92-15.22,1.84-22.17-1.77-4-5.14-7-8.42-9.94l-70.48-62.34-2.09-.95a207.85,207.85,0,0,1-60.79,52.73c-9,5.17-19.09,10.27-23.6,19.66-2.89,6-3,13-2.55,19.61.39,5.36,1.76,11.57,6.64,13.84,4.55,2.12,9.84-.3,14.19-2.82a238.92,238.92,0,0,0,39.11-28.21c-12.7,21.15-33.13,36.91-55.56,47.15-4.5,2.06-9.23,4-12.55,7.67-7,7.7-5.25,19.65-3.07,29.83.3,1.38.74,2.95,2,3.55s2.61,0,3.8-.59c6.19-3,12-6.88,17.94-10.31a160.51,160.51,0,0,1,67.14-20.78Z" transform="translate(-214.93 -48)"/><g class="cls-28"><path class="cls-70" d="M481.39,604.94c.4,13.22-13.75,23.77-12.76,37,.49,6.42,4.71,12.15,10.09,15.7s11.8,5.18,18.18,6.07a16.65,16.65,0,0,0,7.47-.21c5.33-1.75,7.82-7.84,8.92-13.35.93-4.65,1.35-9.53.07-14.1-1.67-6-6-10.72-9.57-15.77s-6.57-11.25-5-17.24l1.81-1.52a365.9,365.9,0,0,1,81.13,29.7,5.05,5.05,0,0,0,2.86.8c2.26-.31,3-3.2,3.1-5.48.48-7.36.93-15-1.74-21.89-4.72-12.21-17.61-18.73-28.79-25.53A171.9,171.9,0,0,1,517.58,546a145.4,145.4,0,0,0,42.61,24c1.72.62,3.65,1.19,5.31.42s2.51-2.81,3.14-4.62c2.47-7.19,4.92-15.22,1.84-22.17-1.77-4-5.14-7-8.42-9.94l-70.48-62.34-2.09-.95a207.85,207.85,0,0,1-60.79,52.73c-9,5.17-19.09,10.27-23.6,19.66-2.89,6-3,13-2.55,19.61.39,5.36,1.76,11.57,6.64,13.84,4.55,2.12,9.84-.3,14.19-2.82a238.92,238.92,0,0,0,39.11-28.21c-12.7,21.15-33.13,36.91-55.56,47.15-4.5,2.06-9.23,4-12.55,7.67-7,7.7-5.25,19.65-3.07,29.83.3,1.38.74,2.95,2,3.55s2.61,0,3.8-.59c6.19-3,12-6.88,17.94-10.31a160.51,160.51,0,0,1,67.14-20.78Z" transform="translate(-214.93 -48)"/></g><path class="cls-71" d="M637,243.85a21.93,21.93,0,0,1,10.5-9.83,12.68,12.68,0,0,1,6-1.23c2.94.23,5.56,1.91,7.91,3.69a16.37,16.37,0,0,1,5.1,5.51c2.75,5.63-.87,12.53-5.87,16.31s-12,5.63-17.74,3.18-9.37-10-6.32-15.5Z" transform="translate(-214.93 -48)"/><g class="cls-28"><path class="cls-72" d="M637,243.85a21.93,21.93,0,0,1,10.5-9.83,12.68,12.68,0,0,1,6-1.23c2.94.23,5.56,1.91,7.91,3.69a16.37,16.37,0,0,1,5.1,5.51c2.75,5.63-.87,12.53-5.87,16.31s-12,5.63-17.74,3.18-9.37-10-6.32-15.5Z" transform="translate(-214.93 -48)"/></g><path class="cls-73" d="M674.7,221.46a9.19,9.19,0,0,1-6.28-7,43.84,43.84,0,0,1-.54-4.68l-.38-5.17a21.64,21.64,0,0,1,0-4.48,17.13,17.13,0,0,1,2.41-6.3c4.1-7.06,10.83-13,19.5-13.21a15.15,15.15,0,0,1,7.06,1.56c9.17,4.62,9.21,15.29,5.7,23.31a16.34,16.34,0,0,1-2.58,4.33,22.25,22.25,0,0,1-4.83,3.84l-7.67,5c-3.73,2.43-8.47,4.93-12.37,2.79Z" transform="translate(-214.93 -48)"/><g class="cls-28"><path class="cls-74" d="M674.7,221.46a9.19,9.19,0,0,1-6.28-7,43.84,43.84,0,0,1-.54-4.68l-.38-5.17a21.64,21.64,0,0,1,0-4.48,17.13,17.13,0,0,1,2.41-6.3c4.1-7.06,10.83-13,19.5-13.21a15.15,15.15,0,0,1,7.06,1.56c9.17,4.62,9.21,15.29,5.7,23.31a16.34,16.34,0,0,1-2.58,4.33,22.25,22.25,0,0,1-4.83,3.84l-7.67,5c-3.73,2.43-8.47,4.93-12.37,2.79Z" transform="translate(-214.93 -48)"/></g><path class="cls-75" d="M668.24,156.33a10.32,10.32,0,0,1-3.64-3.64,19.16,19.16,0,0,1,18.61-28.88,7.39,7.39,0,0,1,7,4.9,20.92,20.92,0,0,1-13.69,28.77,10.6,10.6,0,0,1-8.28-1.15Z" transform="translate(-214.93 -48)"/><g class="cls-28"><path class="cls-76" d="M668.24,156.33a10.32,10.32,0,0,1-3.64-3.64,19.16,19.16,0,0,1,18.61-28.88,7.39,7.39,0,0,1,7,4.9,20.92,20.92,0,0,1-13.69,28.77,10.6,10.6,0,0,1-8.28-1.15Z" transform="translate(-214.93 -48)"/></g><path class="cls-77" d="M331.11,232.64a16.94,16.94,0,0,0-16.57.43,24,24,0,0,0-6.72,6.37c-2.58,3.63-4.3,8.51-2.3,12.49a11.57,11.57,0,0,0,3.76,4c6.69,4.76,16.6,5.06,22.89-.22a16,16,0,0,0,4.29-17.67,11,11,0,0,0-5.35-5.45Z" transform="translate(-214.93 -48)"/><g class="cls-28"><path class="cls-78" d="M331.11,232.64a16.94,16.94,0,0,0-16.57.43,24,24,0,0,0-6.72,6.37c-2.58,3.63-4.3,8.51-2.3,12.49a11.57,11.57,0,0,0,3.76,4c6.69,4.76,16.6,5.06,22.89-.22a16,16,0,0,0,4.29-17.67,11,11,0,0,0-5.35-5.45Z" transform="translate(-214.93 -48)"/></g><path class="cls-79" d="M292,223.27a5.87,5.87,0,0,0-2.57.14,26.78,26.78,0,0,0-5,2.09,10.54,10.54,0,0,0-3.94,3.3c-2.22,3.47-.27,8.64,3.5,10.28s8.5,0,10.92-3.36a11.72,11.72,0,0,0,2.14-6.38,5.92,5.92,0,0,0-5-6.07Z" transform="translate(-214.93 -48)"/><g class="cls-28"><path class="cls-80" d="M292,223.27a5.87,5.87,0,0,0-2.57.14,26.78,26.78,0,0,0-5,2.09,10.54,10.54,0,0,0-3.94,3.3c-2.22,3.47-.27,8.64,3.5,10.28s8.5,0,10.92-3.36a11.72,11.72,0,0,0,2.14-6.38,5.92,5.92,0,0,0-5-6.07Z" transform="translate(-214.93 -48)"/></g><path class="cls-81" d="M309.84,200.28c.05-8.15-.41-17.45-6.68-22.66a13.86,13.86,0,0,0-22.41,7.73,10.2,10.2,0,0,0,.2,5.48,14.91,14.91,0,0,0,3.37,4.91,101.22,101.22,0,0,0,12.89,11.68c2.12,1.62,4.58,3.23,7.24,3s5.07-3.52,5.07-6.85Z" transform="translate(-214.93 -48)"/><g class="cls-28"><path class="cls-82" d="M309.84,200.28c.05-8.15-.41-17.45-6.68-22.66a13.86,13.86,0,0,0-22.41,7.73,10.2,10.2,0,0,0,.2,5.48,14.91,14.91,0,0,0,3.37,4.91,101.22,101.22,0,0,0,12.89,11.68c2.12,1.62,4.58,3.23,7.24,3s5.07-3.52,5.07-6.85Z" transform="translate(-214.93 -48)"/></g><path class="cls-83" d="M326.6,155.16c-2.74,2-6.56,2.17-9.8,1.07a25.15,25.15,0,0,1-8.52-5.57,29.83,29.83,0,0,1-7.23-9c-1.65-3.49-2.13-7.71-.5-11.21a12.81,12.81,0,0,1,3.44-4.36,17.08,17.08,0,0,1,27.34,8c1.2,3.82,1,7.86.39,11.86a14.75,14.75,0,0,1-4.12,8.22Z" transform="translate(-214.93 -48)"/><g class="cls-28"><path class="cls-84" d="M326.6,155.16c-2.74,2-6.56,2.17-9.8,1.07a25.15,25.15,0,0,1-8.52-5.57,29.83,29.83,0,0,1-7.23-9c-1.65-3.49-2.13-7.71-.5-11.21a12.81,12.81,0,0,1,3.44-4.36,17.08,17.08,0,0,1,27.34,8c1.2,3.82,1,7.86.39,11.86a14.75,14.75,0,0,1-4.12,8.22Z" transform="translate(-214.93 -48)"/></g><path class="cls-85" d="M489.46,179.39l41.05-29.87s23.58-40.44,14.59-46c0,0-3.2-6.46-24.43-7.7h-1.31s-9.17,7.26-29.56,31.35c0,0-5.29-10.1-29.51-31.35,0,0-25.88,2.11-26.72,8.77s-3.36,3.25,16.24,45Z" transform="translate(-214.93 -48)"/><path class="cls-86" d="M489.46,179.39l41.05-29.87s23.58-40.44,14.59-46c0,0-3.2-6.46-24.43-7.7h-1.31s-9.17,7.26-29.56,31.35c0,0-5.29-10.1-29.51-31.35,0,0-25.88,2.11-26.72,8.77s-3.36,3.25,16.24,45Z" transform="translate(-214.93 -48)"/><path class="cls-85" d="M461.4,91s10,6.41,28.19,29.15c0,0,16.51-19,28.33-29.65,0,0-4.51-23.7-26.29-41.84a2.88,2.88,0,0,0-3.14-.36C484.86,50.19,476.19,58.12,461.4,91Z" transform="translate(-214.93 -48)"/><path class="cls-87" d="M461.4,91s10,6.41,28.19,29.15c0,0,16.51-19,28.33-29.65,0,0-4.51-23.7-26.29-41.84a2.88,2.88,0,0,0-3.14-.36C484.86,50.19,476.19,58.12,461.4,91Z" transform="translate(-214.93 -48)"/><path class="cls-88" d="M441.26,372.14l1.07-.6c.33-.19.65-.37,1-.58l.28-.15.5-.28a3.07,3.07,0,0,0,.36-.2c.13-.08.24-.18.36-.27A9.09,9.09,0,0,1,447,368.8a.14.14,0,0,1,.09,0,.08.08,0,0,1,0,.1s0,.05-.07.08a2.59,2.59,0,0,0-.31.35c-.19.24-.39.47-.59.7l-.3.34-.45.52q-.82,1-1.68,1.89l-.38.39a1.62,1.62,0,0,1-.33.31,2.66,2.66,0,0,0-.28.38,2.93,2.93,0,0,1-.37.42,3.85,3.85,0,0,0-.3.27,4.5,4.5,0,0,0-.28.37c-.13.17-.27.33-.41.48l-.31.35-.36.39-.4.35c-.19.17-.36.34-.53.52l-.17.21a4.61,4.61,0,0,1-.47.6l-.62.7a2.65,2.65,0,0,1-.4.42c-.11.09-.23.17-.33.27a1.7,1.7,0,0,0-.29.36l-.37.57a2.51,2.51,0,0,1-.25.32,1.73,1.73,0,0,1-.25.21,3.8,3.8,0,0,0-.66.67l-.15.18c0,.21-.25.33-.4.48s-.15.2-.23.29a6.59,6.59,0,0,1-.79.7,16.91,16.91,0,0,0-1.45,1.79c-.38.42-.83.76-1.18,1.2l-.23.16-.5.67a2.6,2.6,0,0,1-.26.32,6.28,6.28,0,0,1-.54.49,13.42,13.42,0,0,0-1.33,1.39l-1.26,1.47-.15.19-.37.46a.8.8,0,0,1-.15.17c-.07.07-.15.12-.23.19a5.82,5.82,0,0,1-.45.4.45.45,0,0,0-.13.1.83.83,0,0,0-.07.13,1.18,1.18,0,0,1-.33.47l-.22.2-.14.21-.17.22-.33.39-.18.17c-.36.48-.83.86-1.2,1.33a2.52,2.52,0,0,1-.21.25l-.2.19a2.1,2.1,0,0,0-.26.33,5.21,5.21,0,0,1-.41.52,3.26,3.26,0,0,1-.33.31l-.28.55a31.08,31.08,0,0,0-5,5.8c-1.39,2.08-2.51,4.32-3.94,6.37-.9,1.29-1.91,2.51-2.92,3.72l-.22.33c-.8,1.4-1.87,2.63-2.63,4.06s-.18,4,.42,5.53l-35.68-13,14.28-7.31,8.41-5,5.76-3.53,2.08-1.29,1.72-1.08,1.79-1.11,2.48-1.55,1.76-1.08,2.39-1.45,1.26-.75,1.12-.65,1.51-.91,1.77-.95,1.6-.86.89-.47,6.25-3.06.55-.27Z" transform="translate(-214.93 -48)"/><polygon class="cls-89" points="274.54 282.23 271.5 279.06 273.02 229.89 271.5 181.21 272.24 173.06 273.02 147.62 273.02 130.24 273.02 108.84 273.02 77.2 273.02 50.43 271.5 29.98 273.02 5.16 275.14 5.16 274.66 31.12 275.74 53.3 274.66 72.16 275.74 84.02 275.74 107.22 276.5 129.55 275.74 153.54 274.66 189.32 276.31 219.72 276.5 237.68 276.31 280.58 274.54 282.23"/><path class="cls-90" d="M489.49,470.36c6,32.34,7.19,65.49,6,98.32-.61,16.19-2,33.12-4.12,49.15l-1.29,9.77c.36-3.38,1.23-11.47,1.57-14.71,2.06-21.06,3.25-42.77,3.28-63.95-.05-26.25-1.31-52.63-5.48-78.58Z" transform="translate(-214.93 -48)"/><path class="cls-91" d="M777.2,498.17c-19.76-12.06-41.65-21.12-63.82-27.69l-9-2.53-9-2.15a281.31,281.31,0,0,0-60-6.74h9.31c1,0,5,0,5.83,0l3.49.21a256.16,256.16,0,0,1,37,4.62c2.65.47,6.43,1.47,9.1,2.05,2.4.51,6.69,1.61,9,2.31,23.89,6.69,47.2,16.33,68,29.91Z" transform="translate(-214.93 -48)"/><path class="cls-91" d="M221.54,498.17c10.79-11.12,24.68-18.74,38.64-25.17A222.25,222.25,0,0,1,293,461.63c3.76-.89,7.52-1.77,11.28-2.61l-11.15,3.09a260.61,260.61,0,0,0-32.54,11.81c-14,6.31-27.75,13.76-39,24.25Z" transform="translate(-214.93 -48)"/><path class="cls-92" d="M412.89,573.27c6.44-3.23,12.5-7.83,18.54-11.77,16.91-11.52,37.53-26,54.66-37-11.46,9.2-23.3,17.88-35.4,26.23-6.05,4.15-12.17,8.22-18.41,12.1s-12.51,7.89-19.39,10.47Z" transform="translate(-214.93 -48)"/><path class="cls-93" d="M564.12,562.41a309.4,309.4,0,0,1-31.63-16.78c-10.15-6.27-20.14-13-28.86-21.16l3.49,2.79c17.73,13.63,37.37,24.53,57,35.15Z" transform="translate(-214.93 -48)"/></g></g></svg>